<svg width="60" height="44" viewBox="0 0 60 44" fill="none" xmlns="http://www.w3.org/2000/svg">
<path fill-rule="evenodd" clip-rule="evenodd" d="M58.7558 0.625373C57.3721 1.41583 55.1464 2.00099 51.9035 2.42701C49.9088 2.68923 46.8331 2.79758 39.2532 2.87314C30.454 2.96075 29.0311 3.02086 27.5312 3.36836C24.2731 4.12305 21.5589 5.73168 19.6416 8.04441C18.3329 9.62299 18.1404 9.99102 16.776 13.5223L15.6723 16.3794L13.6284 16.5282C11.0132 16.7187 9.47954 17.0378 8.13396 17.6719C6.06774 18.6456 4.74557 20.4512 4.25115 22.9743C3.92561 24.6348 4.3241 26.1554 5.42215 27.443C6.26572 28.4322 6.57312 28.5549 6.57312 27.9029C6.57312 27.0714 7.17169 26.2803 8.09369 25.8934C8.86557 25.5694 9.83817 25.5 14.7459 25.4196C20.2855 25.3288 20.4887 25.3396 20.3538 25.7199C20.1472 26.3017 19.623 26.8538 18.9076 27.2434C18.425 27.5065 17.4533 27.6144 14.8138 27.698L11.3528 27.8076L10.0518 31.2996C7.38949 38.4456 5.73398 40.6959 1.48979 42.9376L0 43.7246L0.8092 43.8588C2.34411 44.1134 8.1677 44.0042 9.97164 43.687C15.7621 42.669 19.9239 39.8333 22.1668 35.3776C22.532 34.6523 23.5623 32.1286 24.4565 29.7693L26.0823 25.4797L32.6149 25.3571C39.8792 25.2206 40.6344 25.0991 43.7672 23.5621C46.6054 22.1693 49.5468 19.4439 50.7663 17.0767L51.0709 16.4852H40.3129C32.3195 16.4852 29.5546 16.4224 29.5546 16.2408C29.5546 16.1064 29.9358 15.6323 30.4017 15.1875C31.6455 13.9998 32.7245 13.7676 37.6719 13.6227C42.2066 13.49 45.1792 13.1408 47.6159 12.4544C52.9704 10.9463 56.6624 8.20378 58.6204 4.28008C59.285 2.94827 60.2169 -0.0406383 59.9546 0.000418721C59.8751 0.0129051 59.3356 0.294166 58.7558 0.625373ZM10.9931 19.6504C11.4985 19.9715 11.017 20.9744 10.1538 21.3992C8.63723 22.1452 7.9149 21.2432 9.08695 20.0667C9.70724 19.4441 10.422 19.2879 10.9931 19.6504Z" fill="white"/>
</svg>
